<?xml version="1.0" standalone="no"?>
<!DOCTYPE svg PUBLIC "-//W3C//DTD SVG 20010904//EN"
 "http://www.w3.org/TR/2001/REC-SVG-20010904/DTD/svg10.dtd">
<svg version="1.0" xmlns="http://www.w3.org/2000/svg"
 width="16.000000pt" height="16.000000pt" viewBox="0 0 16.000000 16.000000"
 preserveAspectRatio="xMidYMid meet">
<metadata>
Created by potrace 1.11, written by Peter Selinger 2001-2013
</metadata>
<g transform="translate(0.000000,16.000000) scale(0.003478,-0.003478)"
fill="#000000" stroke="none">
<path d="M2420 4449 l0 -61 -55 4 -55 3 0 -56 c0 -31 -2 -58 -4 -60 -2 -2 -27
-2 -55 -1 l-51 4 0 52 c0 29 -2 55 -4 57 -2 2 -32 2 -65 1 l-61 -4 0 -54 0
-53 -112 -3 -113 -3 -3 -57 -3 -58 -59 0 -60 0 0 -60 0 -60 -55 0 -55 0 0 -55
0 -54 -62 -3 -63 -3 3 -39 c4 -37 3 -38 -23 -32 -21 5 -32 0 -56 -24 -17 -16
-35 -30 -40 -30 -5 0 -9 -5 -9 -12 0 -9 -3 -9 -12 0 -16 16 -29 15 -22 -2 5
-14 -24 -31 -35 -20 -3 4 0 9 7 11 17 6 15 23 -3 23 -10 0 -15 -11 -15 -35 0
-28 -4 -35 -19 -35 -11 0 -23 -5 -26 -10 -4 -6 -24 -22 -46 -36 -22 -13 -37
-29 -34 -34 3 -6 2 -10 -3 -10 -16 0 -184 -170 -231 -232 -24 -32 -47 -58 -52
-58 -5 0 -9 -6 -9 -14 0 -8 -4 -16 -8 -18 -12 -5 -52 -65 -52 -78 0 -7 -11
-21 -25 -32 -14 -11 -25 -28 -25 -38 0 -14 -5 -18 -18 -14 -12 4 -14 3 -4 -4
11 -7 9 -18 -9 -55 -12 -25 -27 -43 -32 -40 -6 4 -8 0 -4 -10 7 -18 -19 -50
-34 -42 -5 4 -6 -1 -3 -9 3 -8 -6 -39 -20 -69 -14 -29 -26 -62 -26 -71 0 -9
-3 -15 -8 -13 -4 3 -8 -11 -10 -30 -1 -19 -7 -43 -12 -53 -6 -10 -10 -34 -11
-52 0 -27 -2 -29 -8 -13 -9 21 -16 -10 -27 -123 -3 -28 -9 -50 -12 -48 -4 2
-7 -6 -8 -17 0 -12 -6 -57 -12 -100 -16 -106 -15 -318 3 -452 19 -146 37 -235
47 -235 4 0 8 -12 8 -27 0 -28 45 -171 75 -240 50 -112 137 -275 157 -294 10
-9 18 -24 18 -33 0 -9 5 -16 10 -16 6 0 10 -5 10 -11 0 -7 8 -18 18 -25 14
-10 15 -15 4 -25 -18 -19 -15 -34 4 -18 14 11 19 10 36 -11 70 -89 206 -230
229 -238 5 -2 9 -11 9 -20 0 -8 3 -13 6 -9 4 3 12 1 18 -6 7 -7 33 -30 59 -51
38 -32 45 -42 35 -53 -9 -12 -7 -13 13 -8 17 4 31 0 46 -15 12 -11 29 -20 38
-20 8 0 15 -4 15 -8 0 -5 10 -14 23 -21 12 -6 36 -20 52 -30 37 -24 154 -81
166 -81 5 0 8 -6 6 -12 -1 -8 8 -12 26 -10 16 2 36 -3 45 -11 9 -8 33 -19 52
-25 105 -33 212 -62 265 -72 33 -7 64 -15 69 -18 19 -11 125 -16 331 -16 315
1 301 -1 545 74 52 16 111 31 130 33 19 2 34 9 33 14 -1 6 28 21 65 33 37 13
69 26 72 29 11 15 112 61 121 56 5 -4 8 -1 7 7 -2 7 7 14 20 16 13 2 26 10 29
18 3 8 23 24 44 35 22 11 39 24 39 30 0 6 7 8 16 5 8 -3 12 -2 9 4 -3 6 -2 10
3 10 10 0 32 18 151 128 46 42 88 76 93 74 5 -1 7 2 4 7 -4 5 12 27 34 50 22
22 40 43 40 46 0 3 12 18 26 33 27 28 85 110 119 167 11 19 30 45 42 59 12 13
19 26 17 29 -2 2 2 10 11 17 8 7 15 18 15 25 0 7 17 50 39 96 21 46 44 102 51
124 7 22 18 54 26 70 25 57 73 280 84 395 12 121 11 357 -1 426 -4 22 -10 65
-13 95 -3 30 -11 72 -17 94 -6 22 -12 50 -13 63 0 12 -4 22 -8 22 -5 0 -8 6
-8 14 0 7 -12 48 -26 90 -14 42 -26 85 -27 96 -1 11 -4 20 -8 20 -9 0 -30 50
-24 60 3 5 2 10 -3 12 -4 1 -17 21 -28 43 -48 95 -77 145 -84 145 -4 0 -11 11
-14 24 -3 14 -16 37 -29 53 -13 15 -32 44 -43 63 -10 19 -34 50 -51 68 -18 18
-33 35 -33 37 0 2 -13 18 -30 36 -16 18 -27 36 -24 41 3 4 -2 5 -10 2 -10 -4
-16 -1 -16 9 0 8 -30 42 -67 74 -38 32 -86 77 -107 100 -24 26 -48 43 -62 43
-13 0 -26 4 -29 10 -9 14 -110 80 -124 80 -6 0 -11 6 -11 14 0 8 -16 20 -35
26 -19 6 -41 20 -48 31 -8 10 -17 16 -20 12 -4 -3 -7 0 -7 8 0 8 5 20 12 27 9
9 -3 12 -55 12 l-67 0 0 55 0 55 -60 0 -60 0 0 60 0 60 -60 0 -60 0 0 60 c0
33 -3 59 -7 59 -5 -1 -32 -1 -61 0 l-54 1 4 55 3 55 -30 1 c-16 0 -69 0 -117
-1 l-88 -1 0 60 0 61 -65 0 -65 0 0 -61z"/>
<path d="M3345 3950 c3 -5 8 -10 11 -10 2 0 4 5 4 10 0 6 -5 10 -11 10 -5 0
-7 -4 -4 -10z"/>
<path d="M3991 3254 c0 -11 3 -14 6 -6 3 7 2 16 -1 19 -3 4 -6 -2 -5 -13z"/>
<path d="M4151 3104 c0 -11 3 -14 6 -6 3 7 2 16 -1 19 -3 4 -6 -2 -5 -13z"/>
<path d="M661 3044 c0 -11 3 -14 6 -6 3 7 2 16 -1 19 -3 4 -6 -2 -5 -13z"/>
<path d="M4151 2954 c0 -11 3 -14 6 -6 3 7 2 16 -1 19 -3 4 -6 -2 -5 -13z"/>
<path d="M4312 2820 c0 -14 2 -19 5 -12 2 6 2 18 0 25 -3 6 -5 1 -5 -13z"/>
<path d="M481 2694 c0 -11 3 -14 6 -6 3 7 2 16 -1 19 -3 4 -6 -2 -5 -13z"/>
<path d="M482 2540 c0 -14 2 -19 5 -12 2 6 2 18 0 25 -3 6 -5 1 -5 -13z"/>
<path d="M4292 2415 c0 -16 2 -22 5 -12 2 9 2 23 0 30 -3 6 -5 -1 -5 -18z"/>
<path d="M4292 1905 c0 -16 2 -22 5 -12 2 9 2 23 0 30 -3 6 -5 -1 -5 -18z"/>
<path d="M482 1860 c0 -14 2 -19 5 -12 2 6 2 18 0 25 -3 6 -5 1 -5 -13z"/>
<path d="M4220 1576 c0 -9 5 -16 10 -16 6 0 10 4 10 9 0 6 -4 13 -10 16 -5 3
-10 -1 -10 -9z"/>
<path d="M4149 1422 c-3 -20 -2 -29 4 -23 5 5 7 19 5 32 -3 20 -5 19 -9 -9z"/>
<path d="M3825 930 c-3 -5 -1 -10 4 -10 6 0 11 5 11 10 0 6 -2 10 -4 10 -3 0
-8 -4 -11 -10z"/>
<path d="M3760 830 c0 -5 5 -10 10 -10 6 0 10 5 10 10 0 6 -4 10 -10 10 -5 0
-10 -4 -10 -10z"/>
<path d="M3018 383 c6 -2 18 -2 25 0 6 3 1 5 -13 5 -14 0 -19 -2 -12 -5z"/>
<path d="M2918 333 c6 -2 18 -2 25 0 6 3 1 5 -13 5 -14 0 -19 -2 -12 -5z"/>
<path d="M2048 283 c6 -2 18 -2 25 0 6 3 1 5 -13 5 -14 0 -19 -2 -12 -5z"/>
<path d="M2688 283 c6 -2 18 -2 25 0 6 3 1 5 -13 5 -14 0 -19 -2 -12 -5z"/>
</g>
</svg>
