<svg width="1440" height="1352" viewBox="0 0 1440 1352" fill="none" xmlns="http://www.w3.org/2000/svg">
<rect x="-19" y="77" width="1477" height="1275" fill="#F7FEFC"/>
<path d="M1290.03 5.48771e-05C1497.06 3.67781e-05 1710.41 67.5665 1840 67.5665L1840 108L-264 108L-264 67.5667C-264 67.5667 -209.214 0.000185945 28.8953 0.000165129C267.005 0.000144313 382.372 67.5666 645.767 67.5666C909.162 67.5666 1083 7.29762e-05 1290.03 5.48771e-05Z" fill="#D2F9F0"/>
<path d="M1332.45 12.0001C1533.68 12 1741.04 82.0689 1867 82.0688L1867 124L-178 124L-178 82.069C-178 82.069 -124.75 12.0002 106.682 12.0002C338.114 12.0001 450.246 82.069 706.255 82.069C962.264 82.0689 1131.23 12.0001 1332.45 12.0001Z" fill="#F7FEFC"/>
</svg>
