<?xml version="1.0" standalone="no"?>
<!DOCTYPE svg PUBLIC "-//W3C//DTD SVG 20010904//EN"
 "http://www.w3.org/TR/2001/REC-SVG-20010904/DTD/svg10.dtd">
<svg version="1.0" xmlns="http://www.w3.org/2000/svg"
 width="1540.000000pt" height="1540.000000pt" viewBox="0 0 1540.000000 1540.000000"
 preserveAspectRatio="xMidYMid meet">
<metadata>
Created by potrace 1.11, written by Peter Selinger 2001-2013
</metadata>
<g transform="translate(0.000000,1540.000000) scale(0.100000,-0.100000)"
fill="#000000" stroke="none">
<path d="M7860 15385 c-6 -7 -10 -86 -9 -204 1 -106 -2 -196 -7 -201 -5 -5
-99 -11 -209 -12 l-200 -3 -2 -204 c-2 -146 -6 -207 -14 -212 -16 -9 -383 -9
-399 1 -8 5 -12 64 -12 201 0 119 -4 199 -10 207 -14 17 -403 18 -414 0 -4 -6
-7 -98 -7 -204 0 -131 -3 -197 -11 -203 -6 -5 -194 -8 -417 -8 -223 0 -411 -3
-417 -7 -9 -5 -12 -67 -12 -210 0 -186 -2 -204 -17 -208 -10 -3 -101 -4 -202
-3 -144 1 -187 -2 -198 -13 -10 -11 -13 -54 -12 -204 2 -148 -1 -192 -11 -198
-7 -4 -101 -8 -208 -8 -130 0 -197 -3 -201 -11 -4 -6 -6 -99 -6 -206 1 -108
-2 -198 -7 -201 -5 -3 -96 -6 -203 -6 -155 0 -197 -3 -206 -14 -8 -9 -12 -59
-12 -139 -1 -84 -5 -125 -12 -125 -11 0 -254 -137 -345 -195 -398 -251 -699
-475 -960 -715 -15 -14 -64 -58 -109 -99 -109 -99 -285 -275 -396 -396 -49
-54 -97 -106 -105 -114 -13 -15 -94 -111 -205 -245 -101 -121 -213 -272 -292
-391 -47 -71 -93 -141 -102 -155 -10 -14 -33 -51 -52 -83 -41 -71 -45 -77 -90
-152 -39 -63 -54 -90 -127 -220 -58 -103 -189 -366 -236 -475 -60 -136 -63
-142 -86 -200 -12 -30 -26 -64 -31 -75 -59 -132 -221 -618 -254 -762 -2 -10
-11 -43 -19 -73 -25 -95 -65 -258 -70 -282 -2 -13 -12 -56 -20 -95 -16 -73
-82 -518 -90 -603 -2 -25 -8 -81 -11 -125 -4 -44 -9 -89 -11 -99 -9 -50 -18
-303 -18 -526 0 -272 7 -420 30 -630 3 -30 7 -68 9 -85 6 -60 17 -150 20 -166
2 -9 6 -40 10 -70 3 -30 17 -117 31 -194 32 -187 31 -183 60 -315 14 -63 27
-124 29 -135 65 -319 263 -888 453 -1302 67 -145 191 -388 240 -471 18 -29 32
-55 32 -57 0 -7 169 -274 285 -450 139 -211 240 -346 384 -515 166 -195 220
-258 286 -326 17 -17 42 -44 56 -60 36 -40 206 -202 318 -304 52 -47 108 -98
125 -115 25 -24 136 -116 280 -232 50 -40 291 -217 376 -275 168 -115 428
-272 690 -416 164 -90 311 -155 607 -272 71 -28 137 -55 148 -60 58 -26 324
-115 505 -169 117 -34 388 -104 454 -117 11 -2 32 -6 46 -9 14 -3 48 -10 75
-15 28 -6 61 -12 75 -15 44 -9 134 -24 170 -29 19 -2 55 -7 80 -11 25 -3 59
-8 75 -10 359 -48 378 -50 520 -59 39 -3 120 -8 180 -12 194 -12 444 -8 615
11 34 4 159 14 250 20 97 7 196 17 305 31 28 4 59 8 70 9 178 23 419 69 610
117 66 16 127 31 135 33 131 29 529 157 715 230 491 191 599 239 803 357 46
26 86 48 89 48 3 0 17 8 31 19 15 10 47 29 72 43 91 51 119 67 225 133 317
195 702 486 896 675 14 14 70 65 125 115 380 344 723 741 1027 1188 37 54 67
99 67 102 0 2 17 30 38 62 196 306 417 725 539 1023 19 47 41 98 49 114 8 16
14 33 14 38 0 5 8 28 19 51 50 112 180 500 206 616 2 9 13 46 24 84 11 37 17
67 15 67 -3 0 0 8 5 18 6 11 12 30 15 43 2 13 9 44 15 69 33 143 50 218 55
245 27 149 65 380 70 420 4 28 9 64 12 80 6 32 9 63 19 190 3 44 8 94 10 110
22 167 22 915 0 1065 -2 14 -7 62 -10 108 -4 46 -8 97 -10 113 -70 550 -159
960 -310 1425 -32 96 -132 366 -160 429 -7 17 -25 59 -40 95 -143 343 -452
910 -677 1242 -62 91 -407 527 -462 584 -6 6 -45 49 -86 95 -41 46 -160 169
-265 274 -259 259 -395 381 -600 539 -55 42 -104 80 -110 84 -5 4 -39 28 -75
52 -36 25 -67 48 -70 51 -3 4 -30 23 -60 43 -30 19 -111 73 -180 118 -160 105
-456 283 -546 328 l-70 35 -1 50 c-1 28 -2 69 -2 92 -2 71 -6 72 -222 71 -148
-1 -193 2 -199 12 -5 7 -8 98 -7 202 0 131 -3 192 -11 200 -8 8 -69 11 -204
10 -125 0 -197 3 -205 10 -10 8 -13 55 -12 201 2 158 -1 192 -13 201 -10 7
-81 11 -201 10 -102 0 -192 3 -199 7 -9 6 -13 57 -13 208 0 110 -4 203 -7 207
-4 4 -95 7 -202 7 -106 0 -200 3 -207 7 -9 6 -12 53 -11 197 1 103 -1 196 -4
206 -5 16 -34 17 -418 17 -319 0 -416 3 -423 13 -6 7 -10 95 -10 206 0 142 -4
195 -13 201 -21 13 -398 9 -410 -5z m403 -421 c15 -5 17 -23 17 -202 0 -108
-4 -202 -8 -208 -5 -8 -71 -11 -205 -12 -173 0 -198 2 -205 17 -10 20 -9 382
1 397 7 12 362 18 400 8z"/>
</g>
</svg>
